<svg xmlns="http://www.w3.org/2000/svg" version="1.1" xmlns:xlink="http://www.w3.org/1999/xlink" xmlns:svgjs="http://svgjs.com/svgjs" width="512" height="512" x="0" y="0" viewBox="0 0 128 128" style="enable-background:new 0 0 512 512" xml:space="preserve" class="hovered-paths"><g><path id="Menu" d="m116 68h-104c-2.209 0-4-1.789-4-4s1.791-4 4-4h104c2.209 0 4 1.789 4 4s-1.791 4-4 4zm4 28c0-2.211-1.791-4-4-4h-104c-2.209 0-4 1.789-4 4s1.791 4 4 4h104c2.209 0 4-1.789 4-4zm0-64c0-2.211-1.791-4-4-4h-104c-2.209 0-4 1.789-4 4s1.791 4 4 4h104c2.209 0 4-1.789 4-4z" fill="#d0d6d7" data-original="#000000" class="hovered-path"></path></g></svg>
